<mxfile host="app.diagrams.net" modified="2021-04-27T12:23:12.976Z" agent="5.0 (Windows NT 10.0; WOW64) AppleWebKit/537.36 (KHTML, like Gecko) Chrome/91.0.4449.6 Safari/537.36" etag="7voJo1nlKzZ8-jgAoLVk" version="14.6.1" type="github">
  <diagram id="C5RBs43oDa-KdzZeNtuy" name="Page-1">
    <mxGraphModel dx="1422" dy="839" grid="1" gridSize="10" guides="1" tooltips="1" connect="1" arrows="1" fold="1" page="1" pageScale="1" pageWidth="827" pageHeight="1169" math="0" shadow="0">
      <root>
        <mxCell id="WIyWlLk6GJQsqaUBKTNV-0" />
        <mxCell id="WIyWlLk6GJQsqaUBKTNV-1" parent="WIyWlLk6GJQsqaUBKTNV-0" />
        <mxCell id="2iQ43J373BwdbHGBQmZQ-4" style="edgeStyle=orthogonalEdgeStyle;rounded=0;orthogonalLoop=1;jettySize=auto;html=1;entryX=0;entryY=0.5;entryDx=0;entryDy=0;" edge="1" parent="WIyWlLk6GJQsqaUBKTNV-1" source="2iQ43J373BwdbHGBQmZQ-0" target="2iQ43J373BwdbHGBQmZQ-1">
          <mxGeometry relative="1" as="geometry" />
        </mxCell>
        <mxCell id="2iQ43J373BwdbHGBQmZQ-5" style="edgeStyle=orthogonalEdgeStyle;rounded=0;orthogonalLoop=1;jettySize=auto;html=1;entryX=0;entryY=0.5;entryDx=0;entryDy=0;" edge="1" parent="WIyWlLk6GJQsqaUBKTNV-1" source="2iQ43J373BwdbHGBQmZQ-0" target="2iQ43J373BwdbHGBQmZQ-3">
          <mxGeometry relative="1" as="geometry" />
        </mxCell>
        <mxCell id="2iQ43J373BwdbHGBQmZQ-6" style="edgeStyle=orthogonalEdgeStyle;rounded=0;orthogonalLoop=1;jettySize=auto;html=1;entryX=0;entryY=0.5;entryDx=0;entryDy=0;" edge="1" parent="WIyWlLk6GJQsqaUBKTNV-1" source="2iQ43J373BwdbHGBQmZQ-0" target="2iQ43J373BwdbHGBQmZQ-2">
          <mxGeometry relative="1" as="geometry" />
        </mxCell>
        <mxCell id="2iQ43J373BwdbHGBQmZQ-0" value="设计模式" style="rounded=1;whiteSpace=wrap;html=1;" vertex="1" parent="WIyWlLk6GJQsqaUBKTNV-1">
          <mxGeometry x="90" y="500" width="120" height="60" as="geometry" />
        </mxCell>
        <mxCell id="2iQ43J373BwdbHGBQmZQ-16" value="" style="edgeStyle=orthogonalEdgeStyle;rounded=0;orthogonalLoop=1;jettySize=auto;html=1;" edge="1" parent="WIyWlLk6GJQsqaUBKTNV-1" source="2iQ43J373BwdbHGBQmZQ-1" target="2iQ43J373BwdbHGBQmZQ-15">
          <mxGeometry relative="1" as="geometry" />
        </mxCell>
        <mxCell id="2iQ43J373BwdbHGBQmZQ-1" value="创建型模式" style="rounded=1;whiteSpace=wrap;html=1;" vertex="1" parent="WIyWlLk6GJQsqaUBKTNV-1">
          <mxGeometry x="294" y="142.5" width="120" height="60" as="geometry" />
        </mxCell>
        <mxCell id="2iQ43J373BwdbHGBQmZQ-30" value="" style="edgeStyle=orthogonalEdgeStyle;rounded=0;orthogonalLoop=1;jettySize=auto;html=1;" edge="1" parent="WIyWlLk6GJQsqaUBKTNV-1" source="2iQ43J373BwdbHGBQmZQ-2" target="2iQ43J373BwdbHGBQmZQ-29">
          <mxGeometry relative="1" as="geometry" />
        </mxCell>
        <mxCell id="2iQ43J373BwdbHGBQmZQ-2" value="结构型模式" style="rounded=1;whiteSpace=wrap;html=1;" vertex="1" parent="WIyWlLk6GJQsqaUBKTNV-1">
          <mxGeometry x="294" y="958.5" width="120" height="60" as="geometry" />
        </mxCell>
        <mxCell id="2iQ43J373BwdbHGBQmZQ-23" value="" style="edgeStyle=orthogonalEdgeStyle;rounded=0;orthogonalLoop=1;jettySize=auto;html=1;" edge="1" parent="WIyWlLk6GJQsqaUBKTNV-1" source="2iQ43J373BwdbHGBQmZQ-3" target="2iQ43J373BwdbHGBQmZQ-22">
          <mxGeometry relative="1" as="geometry" />
        </mxCell>
        <mxCell id="2iQ43J373BwdbHGBQmZQ-3" value="行为型模式" style="rounded=1;whiteSpace=wrap;html=1;" vertex="1" parent="WIyWlLk6GJQsqaUBKTNV-1">
          <mxGeometry x="294" y="500" width="120" height="60" as="geometry" />
        </mxCell>
        <mxCell id="2iQ43J373BwdbHGBQmZQ-8" value="抽象工厂模式" style="rounded=0;whiteSpace=wrap;html=1;" vertex="1" parent="WIyWlLk6GJQsqaUBKTNV-1">
          <mxGeometry x="490" y="157" width="100" height="30" as="geometry" />
        </mxCell>
        <mxCell id="2iQ43J373BwdbHGBQmZQ-9" value="单例模式" style="rounded=0;whiteSpace=wrap;html=1;" vertex="1" parent="WIyWlLk6GJQsqaUBKTNV-1">
          <mxGeometry x="490" y="75" width="100" height="30" as="geometry" />
        </mxCell>
        <mxCell id="2iQ43J373BwdbHGBQmZQ-10" value="工厂方法模式" style="rounded=0;whiteSpace=wrap;html=1;" vertex="1" parent="WIyWlLk6GJQsqaUBKTNV-1">
          <mxGeometry x="490" y="118" width="100" height="30" as="geometry" />
        </mxCell>
        <mxCell id="2iQ43J373BwdbHGBQmZQ-11" value="建造者模式" style="rounded=0;whiteSpace=wrap;html=1;" vertex="1" parent="WIyWlLk6GJQsqaUBKTNV-1">
          <mxGeometry x="490" y="198" width="100" height="30" as="geometry" />
        </mxCell>
        <mxCell id="2iQ43J373BwdbHGBQmZQ-12" value="原型模式" style="rounded=0;whiteSpace=wrap;html=1;" vertex="1" parent="WIyWlLk6GJQsqaUBKTNV-1">
          <mxGeometry x="490" y="241" width="100" height="30" as="geometry" />
        </mxCell>
        <mxCell id="2iQ43J373BwdbHGBQmZQ-15" value="" style="shape=curlyBracket;whiteSpace=wrap;html=1;rounded=1;" vertex="1" parent="WIyWlLk6GJQsqaUBKTNV-1">
          <mxGeometry x="470" y="70" width="20" height="205" as="geometry" />
        </mxCell>
        <mxCell id="2iQ43J373BwdbHGBQmZQ-17" value="策略模式" style="rounded=0;whiteSpace=wrap;html=1;" vertex="1" parent="WIyWlLk6GJQsqaUBKTNV-1">
          <mxGeometry x="490" y="414" width="100" height="30" as="geometry" />
        </mxCell>
        <mxCell id="2iQ43J373BwdbHGBQmZQ-18" value="访问者模式" style="rounded=0;whiteSpace=wrap;html=1;" vertex="1" parent="WIyWlLk6GJQsqaUBKTNV-1">
          <mxGeometry x="490" y="332" width="100" height="30" as="geometry" />
        </mxCell>
        <mxCell id="2iQ43J373BwdbHGBQmZQ-19" value="模板模式" style="rounded=0;whiteSpace=wrap;html=1;" vertex="1" parent="WIyWlLk6GJQsqaUBKTNV-1">
          <mxGeometry x="490" y="375" width="100" height="30" as="geometry" />
        </mxCell>
        <mxCell id="2iQ43J373BwdbHGBQmZQ-20" value="状态模式" style="rounded=0;whiteSpace=wrap;html=1;" vertex="1" parent="WIyWlLk6GJQsqaUBKTNV-1">
          <mxGeometry x="490" y="455" width="100" height="30" as="geometry" />
        </mxCell>
        <mxCell id="2iQ43J373BwdbHGBQmZQ-21" value="观察者模式" style="rounded=0;whiteSpace=wrap;html=1;" vertex="1" parent="WIyWlLk6GJQsqaUBKTNV-1">
          <mxGeometry x="490" y="498" width="100" height="30" as="geometry" />
        </mxCell>
        <mxCell id="2iQ43J373BwdbHGBQmZQ-22" value="" style="shape=curlyBracket;whiteSpace=wrap;html=1;rounded=1;" vertex="1" parent="WIyWlLk6GJQsqaUBKTNV-1">
          <mxGeometry x="470" y="320" width="20" height="460" as="geometry" />
        </mxCell>
        <mxCell id="2iQ43J373BwdbHGBQmZQ-24" value="装饰模式" style="rounded=0;whiteSpace=wrap;html=1;" vertex="1" parent="WIyWlLk6GJQsqaUBKTNV-1">
          <mxGeometry x="490" y="934.5" width="100" height="30" as="geometry" />
        </mxCell>
        <mxCell id="2iQ43J373BwdbHGBQmZQ-25" value="适配器模式" style="rounded=0;whiteSpace=wrap;html=1;" vertex="1" parent="WIyWlLk6GJQsqaUBKTNV-1">
          <mxGeometry x="490" y="852.5" width="100" height="30" as="geometry" />
        </mxCell>
        <mxCell id="2iQ43J373BwdbHGBQmZQ-26" value="桥接模式" style="rounded=0;whiteSpace=wrap;html=1;" vertex="1" parent="WIyWlLk6GJQsqaUBKTNV-1">
          <mxGeometry x="490" y="895.5" width="100" height="30" as="geometry" />
        </mxCell>
        <mxCell id="2iQ43J373BwdbHGBQmZQ-27" value="组合模式" style="rounded=0;whiteSpace=wrap;html=1;" vertex="1" parent="WIyWlLk6GJQsqaUBKTNV-1">
          <mxGeometry x="490" y="975.5" width="100" height="30" as="geometry" />
        </mxCell>
        <mxCell id="2iQ43J373BwdbHGBQmZQ-28" value="享元模式" style="rounded=0;whiteSpace=wrap;html=1;" vertex="1" parent="WIyWlLk6GJQsqaUBKTNV-1">
          <mxGeometry x="490" y="1018.5" width="100" height="30" as="geometry" />
        </mxCell>
        <mxCell id="2iQ43J373BwdbHGBQmZQ-29" value="" style="shape=curlyBracket;whiteSpace=wrap;html=1;rounded=1;" vertex="1" parent="WIyWlLk6GJQsqaUBKTNV-1">
          <mxGeometry x="470" y="841.5" width="20" height="294.5" as="geometry" />
        </mxCell>
        <mxCell id="2iQ43J373BwdbHGBQmZQ-31" value="代理模式" style="rounded=0;whiteSpace=wrap;html=1;" vertex="1" parent="WIyWlLk6GJQsqaUBKTNV-1">
          <mxGeometry x="490" y="1060" width="100" height="30" as="geometry" />
        </mxCell>
        <mxCell id="2iQ43J373BwdbHGBQmZQ-32" value="外观模式" style="rounded=0;whiteSpace=wrap;html=1;" vertex="1" parent="WIyWlLk6GJQsqaUBKTNV-1">
          <mxGeometry x="490" y="1098" width="100" height="30" as="geometry" />
        </mxCell>
        <mxCell id="2iQ43J373BwdbHGBQmZQ-33" value="迭代器模式" style="rounded=0;whiteSpace=wrap;html=1;" vertex="1" parent="WIyWlLk6GJQsqaUBKTNV-1">
          <mxGeometry x="490" y="620" width="100" height="30" as="geometry" />
        </mxCell>
        <mxCell id="2iQ43J373BwdbHGBQmZQ-34" value="备忘录模式" style="rounded=0;whiteSpace=wrap;html=1;" vertex="1" parent="WIyWlLk6GJQsqaUBKTNV-1">
          <mxGeometry x="490" y="538" width="100" height="30" as="geometry" />
        </mxCell>
        <mxCell id="2iQ43J373BwdbHGBQmZQ-35" value="中介者模式" style="rounded=0;whiteSpace=wrap;html=1;" vertex="1" parent="WIyWlLk6GJQsqaUBKTNV-1">
          <mxGeometry x="490" y="579" width="100" height="30" as="geometry" />
        </mxCell>
        <mxCell id="2iQ43J373BwdbHGBQmZQ-36" value="解释器模式" style="rounded=0;whiteSpace=wrap;html=1;" vertex="1" parent="WIyWlLk6GJQsqaUBKTNV-1">
          <mxGeometry x="490" y="662" width="100" height="30" as="geometry" />
        </mxCell>
        <mxCell id="2iQ43J373BwdbHGBQmZQ-37" value="命令模式" style="rounded=0;whiteSpace=wrap;html=1;" vertex="1" parent="WIyWlLk6GJQsqaUBKTNV-1">
          <mxGeometry x="490" y="703" width="100" height="30" as="geometry" />
        </mxCell>
        <mxCell id="2iQ43J373BwdbHGBQmZQ-38" value="责任链模式" style="rounded=0;whiteSpace=wrap;html=1;" vertex="1" parent="WIyWlLk6GJQsqaUBKTNV-1">
          <mxGeometry x="490" y="743" width="100" height="30" as="geometry" />
        </mxCell>
      </root>
    </mxGraphModel>
  </diagram>
</mxfile>
